mtllib one_dollar_bill.mtl
o Plane001_Dollar_Bill_Texture_0
usemtl Dollar_Bill_Texture
v 0.15595597198000288 -0.0002042244396762102 -0.06629405699888556
v -0.1559560236116735 -0.00020422443967617202 -0.06629393553586989
v -0.15595597198000288 -0.00020421442956119185 0.06629405702972184
v 0.1559560236116735 -0.00020421442956123004 0.06629393556670617
v 0.15595597198000288 -0.00032258152276998524 -0.06629405698994985
v 0.1559560236116735 -0.0003225715126550051 0.06629393557564188
v -0.15595597198000288 -0.0003225715126549669 0.06629405703865755
v -0.1559560236116735 -0.000322581522769947 -0.06629393552693418
v -0.15595597198000288 -0.00020421442956119185 0.06629405702972184
v -0.1559560236116735 -0.00020422443967617202 -0.06629393553586989
v -0.1559560236116735 -0.000322581522769947 -0.06629393552693418
v -0.15595597198000288 -0.0003225715126549669 0.06629405703865755
v 0.15595597198000288 -0.0002042244396762102 -0.06629405699888556
v 0.1559560236116735 -0.00020421442956123004 0.06629393556670617
v 0.1559560236116735 -0.0003225715126550051 0.06629393557564188
v 0.15595597198000288 -0.00032258152276998524 -0.06629405698994985
v 0.1559560236116735 -0.00020421442956123004 0.06629393556670617
v -0.15595597198000288 -0.00020421442956119185 0.06629405702972184
v -0.15595597198000288 -0.0003225715126549669 0.06629405703865755
v 0.1559560236116735 -0.0003225715126550051 0.06629393557564188
v -0.1559560236116735 -0.00020422443967617202 -0.06629393553586989
v 0.15595597198000288 -0.0002042244396762102 -0.06629405699888556
v 0.15595597198000288 -0.00032258152276998524 -0.06629405698994985
v -0.1559560236116735 -0.000322581522769947 -0.06629393552693418
vt 0.02806147374212742 0.4491613507270813
vt 0.9758151173591614 0.4491613507270813
vt 0.9758151173591614 0.02781432867050171
vt 0.02806147374212742 0.02781432867050171
vt 0.9752423167228699 0.9038671851158142
vt 0.9752424359321594 0.48130613565444946
vt 0.02475772239267826 0.48130571842193604
vt 0.024757636711001396 0.9038668125867844
vt 0.9758151173591614 0.02781432867050171
vt 0.9758151173591614 0.4491613507270813
vt 0.9758151173591614 0.4491613507270813
vt 0.9758151173591614 0.02781432867050171
vt 0.02806147374212742 0.4491613507270813
vt 0.02806147374212742 0.02781432867050171
vt 0.02806147374212742 0.02781432867050171
vt 0.02806147374212742 0.4491613507270813
vt 0.02806147374212742 0.02781432867050171
vt 0.9758151173591614 0.02781432867050171
vt 0.9758151173591614 0.02781432867050171
vt 0.02806147374212742 0.02781432867050171
vt 0.9758151173591614 0.4491613507270813
vt 0.02806147374212742 0.4491613507270813
vt 0.02806147374212742 0.4491613507270813
vt 0.9758151173591614 0.4491613507270813
vn -2.927750304821179e-14 0.9999999999999972 -7.549789982074772e-8
vn -2.927750304821179e-14 0.9999999999999972 -7.549789982074772e-8
vn -2.927750304821179e-14 0.9999999999999972 -7.549789982074772e-8
vn -2.927750304821179e-14 0.9999999999999972 -7.549789982074772e-8
vn 2.927750304821179e-14 -0.9999999999999972 7.549789982074772e-8
vn 2.927750304821179e-14 -0.9999999999999972 7.549789982074772e-8
vn 2.927750304821179e-14 -0.9999999999999972 7.549789982074772e-8
vn 2.927750304821179e-14 -0.9999999999999972 7.549789982074772e-8
vn -0.9999999999999242 1.2246466962333883e-16 3.89414377755301e-7
vn -0.9999999999999242 1.2246466962333883e-16 3.89414377755301e-7
vn -0.9999999999999242 1.2246466962333883e-16 3.89414377755301e-7
vn -0.9999999999999242 1.2246466962333883e-16 3.89414377755301e-7
vn 0.9999999999999242 -1.2246466962333883e-16 -3.89414377755301e-7
vn 0.9999999999999242 -1.2246466962333883e-16 -3.89414377755301e-7
vn 0.9999999999999242 -1.2246466962333883e-16 -3.89414377755301e-7
vn 0.9999999999999242 -1.2246466962333883e-16 -3.89414377755301e-7
vn 3.894143777552999e-7 7.54978999317814e-8 0.9999999999999214
vn 3.894143777552999e-7 7.54978999317814e-8 0.9999999999999214
vn 3.894143777552999e-7 7.54978999317814e-8 0.9999999999999214
vn 3.894143777552999e-7 7.54978999317814e-8 0.9999999999999214
vn -3.894143777552999e-7 -7.54978999317814e-8 -0.9999999999999214
vn -3.894143777552999e-7 -7.54978999317814e-8 -0.9999999999999214
vn -3.894143777552999e-7 -7.54978999317814e-8 -0.9999999999999214
vn -3.894143777552999e-7 -7.54978999317814e-8 -0.9999999999999214
f 1/1/1 2/2/2 3/3/3
f 1/1/1 3/3/3 4/4/4
f 5/5/5 6/6/6 7/7/7
f 5/5/5 7/7/7 8/8/8
f 9/9/9 10/10/10 11/11/11
f 9/9/9 11/11/11 12/12/12
f 13/13/13 14/14/14 15/15/15
f 13/13/13 15/15/15 16/16/16
f 17/17/17 18/18/18 19/19/19
f 17/17/17 19/19/19 20/20/20
f 21/21/21 22/22/22 23/23/23
f 21/21/21 23/23/23 24/24/24
